<svg width="606" height="210" viewBox="0 0 606 210" fill="none" xmlns="http://www.w3.org/2000/svg">
<g clip-path="url(#clip0_95_416)">
<path d="M58.3551 79.017C53.7417 79.0004 49.3247 76.9347 46.0757 73.2743C42.8267 69.614 41.0119 64.6588 41.0305 59.4988C41.049 54.3389 42.8995 49.3969 46.1747 45.76C49.45 42.1231 53.8818 40.0893 58.4951 40.1059C62.9597 40.122 67.0117 42.0173 70.0738 45.0764C73.1578 42.0394 77.2233 40.1733 81.6879 40.1894C86.3012 40.206 90.7183 42.2717 93.9672 45.932C97.2162 49.5924 99.0311 54.5476 99.0125 59.7075C98.9939 64.8675 97.1435 69.8095 93.8682 73.4463C90.593 77.0832 86.1612 79.1171 81.5479 79.1005C81.053 87.7241 80.4999 96.4124 80.4688 105.038C80.4378 113.663 80.9283 122.355 81.3612 130.982C85.9745 130.999 90.3915 133.064 93.6405 136.725C96.8895 140.385 98.7043 145.34 98.6857 150.5C98.6672 155.66 96.8167 160.602 93.5415 164.239C90.2662 167.876 85.8345 169.91 81.2211 169.893C76.7565 169.877 72.7045 167.982 69.6424 164.923C66.5584 167.96 62.4929 169.826 58.0283 169.81C53.415 169.793 48.998 167.727 45.749 164.067C42.5 160.407 40.6851 155.451 40.7037 150.291C40.7223 145.132 42.5727 140.19 45.848 136.553C49.1232 132.916 53.555 130.882 58.1683 130.899C58.6632 122.275 59.2164 113.587 59.2474 104.961C59.2784 96.336 58.7879 87.644 58.3551 79.017Z" fill="white"/>
</g>
<path d="M161.864 170H137.384V40.29H223.914V62.22H161.864V94.18H217.454V115.94H161.864V170ZM280.846 171.87C271.212 171.87 262.712 169.773 255.346 165.58C247.979 161.387 242.256 155.607 238.176 148.24C234.209 140.76 232.226 132.317 232.226 122.91C232.226 114.183 233.982 106.023 237.496 98.43C241.122 90.7233 246.506 84.49 253.646 79.73C260.899 74.97 269.739 72.59 280.166 72.59C288.779 72.59 296.712 74.4033 303.966 78.03C311.219 81.5433 317.056 87.04 321.476 94.52C325.896 101.887 328.106 111.067 328.106 122.06V126.99H256.026C256.366 130.957 257.556 134.697 259.596 138.21C261.862 142.63 264.866 146.087 268.606 148.58C272.459 150.96 276.822 152.15 281.696 152.15C286.909 152.15 291.386 150.847 295.126 148.24C298.866 145.52 301.529 142.063 303.116 137.87H326.576C323.516 147.957 318.132 156.173 310.426 162.52C302.719 168.753 292.859 171.87 280.846 171.87ZM304.646 109.82C304.192 106.193 303.002 103.247 301.076 100.98C298.922 97.6933 296.089 95.2 292.576 93.5C289.062 91.6867 285.152 90.78 280.846 90.78C276.539 90.78 272.629 91.63 269.116 93.33C265.716 95.03 262.939 97.58 260.786 100.98C258.746 103.473 257.499 106.42 257.046 109.82H304.646ZM373.8 170C358.953 170 351.53 163.03 351.53 149.09V92.99H337.42V74.63H351.53V40.29H374.48V74.63H392.84V92.99H374.48V142.12C374.48 145.067 374.933 147.277 375.84 148.75C376.86 150.223 379.013 150.96 382.3 150.96H392.67V170H373.8ZM452.004 171.87C442.484 171.87 434.04 169.773 426.674 165.58C419.42 161.387 413.754 155.493 409.674 147.9C405.594 140.307 403.554 131.58 403.554 121.72C403.554 112.2 405.594 103.7 409.674 96.22C413.754 88.74 419.42 82.96 426.674 78.88C434.04 74.6867 442.484 72.59 452.004 72.59C463.45 72.59 473.14 75.5367 481.074 81.43C489.12 87.21 494.334 95.0867 496.714 105.06H471.724C470.25 100.64 467.814 97.24 464.414 94.86C461.014 92.48 456.877 91.29 452.004 91.29C444.524 91.29 438.46 94.0667 433.814 99.62C429.28 105.173 427.014 112.54 427.014 121.72C427.014 131.24 429.28 138.89 433.814 144.67C438.46 150.337 444.524 153.17 452.004 153.17C457.444 153.17 461.864 151.867 465.264 149.26C468.664 146.54 470.987 142.743 472.234 137.87H497.054C494.9 148.41 489.744 156.74 481.584 162.86C473.424 168.867 463.564 171.87 452.004 171.87ZM513.22 170V40.29H536.17V86.7C539.91 81.4867 543.82 77.86 547.9 75.82C551.98 73.6667 556.683 72.59 562.01 72.59C576.97 72.59 586.886 77.9167 591.76 88.57C593.573 92.31 594.706 96.1067 595.16 99.96C595.613 103.813 595.84 108.857 595.84 115.09V170H572.89V114.75C572.89 109.877 572.493 105.967 571.7 103.02C571.02 99.96 569.886 97.5233 568.3 95.71C565.58 92.8767 561.556 91.46 556.23 91.46C549.656 91.46 544.783 93.3867 541.61 97.24C539.683 99.5067 538.266 102.51 537.36 106.25C536.566 109.99 536.17 115.033 536.17 121.38V170H513.22Z" fill="white"/>
<defs>
<clipPath id="clip0_95_416">
<rect width="155.645" height="139.158" fill="white" transform="translate(139.717 27.4277) rotate(90.2062)"/>
</clipPath>
</defs>
</svg>
